<svg width="34" height="34" viewBox="0 0 34 34" fill="none" xmlns="http://www.w3.org/2000/svg">
<rect width="34" height="34" rx="17" fill="url(#paint0_linear)"/>
<path d="M17.0002 8.10383C13.3528 8.10383 9.88927 7.77963 8.56633 11.1722C8.01988 12.5734 8.09923 14.3931 8.09923 16.9988C8.09923 19.2852 8.02591 21.4342 8.56633 22.8243C9.88626 26.2189 13.3779 25.8937 16.9982 25.8937C20.4909 25.8937 24.092 26.257 25.4311 22.8243C25.9785 21.4091 25.8982 19.6164 25.8982 16.9988C25.8982 13.5239 26.09 11.2806 24.4034 9.59635C22.6958 7.89004 20.3864 8.10383 16.9962 8.10383H17.0002ZM16.2026 9.70676C23.8108 9.69472 24.7791 8.84959 24.2447 20.5901C24.0549 24.7424 20.8907 24.2867 17.0012 24.2867C9.90936 24.2867 9.70545 24.084 9.70545 16.9947C9.70545 9.82319 10.268 9.71078 16.2026 9.70476V9.70676ZM21.7515 11.1832C21.1619 11.1832 20.6837 11.661 20.6837 12.2502C20.6837 12.8394 21.1619 13.3171 21.7515 13.3171C22.3412 13.3171 22.8193 12.8394 22.8193 12.2502C22.8193 11.661 22.3412 11.1832 21.7515 11.1832V11.1832ZM17.0002 12.4308C14.4759 12.4308 12.4297 14.4764 12.4297 16.9988C12.4297 19.5211 14.4759 21.5657 17.0002 21.5657C19.5245 21.5657 21.5697 19.5211 21.5697 16.9988C21.5697 14.4764 19.5245 12.4308 17.0002 12.4308V12.4308ZM17.0002 14.0338C20.9228 14.0338 20.9278 19.9637 17.0002 19.9637C13.0786 19.9637 13.0726 14.0338 17.0002 14.0338Z" fill="white"/>
<defs>
<linearGradient id="paint0_linear" x1="2.28282" y1="31.7849" x2="33.7861" y2="4.5138" gradientUnits="userSpaceOnUse">
<stop stop-color="#FFDD55"/>
<stop offset="0.5" stop-color="#FF543E"/>
<stop offset="1" stop-color="#C837AB"/>
</linearGradient>
</defs>
</svg>
