<svg width="35" height="35" viewBox="0 0 35 35" fill="none" xmlns="http://www.w3.org/2000/svg">
<rect x="0.5" y="0.5" width="34" height="34" rx="17" fill="#0077B5"/>
<path fill-rule="evenodd" clip-rule="evenodd" d="M14.2956 12.5333C14.2956 13.3725 13.664 14.0439 12.6498 14.0439H12.6312C11.6547 14.0439 11.0234 13.3725 11.0234 12.5333C11.0234 11.6765 11.6739 11.0238 12.669 11.0238C13.664 11.0238 14.2768 11.6765 14.2956 12.5333ZM14.1046 15.2367V23.9759H11.196V15.2367H14.1046ZM24.594 23.976L24.5942 18.9652C24.5942 16.2809 23.1592 15.0315 21.2452 15.0315C19.7009 15.0315 19.0095 15.8798 18.6235 16.4748V15.237H15.7145C15.7529 16.057 15.7145 23.9762 15.7145 23.9762H18.6235V19.0955C18.6235 18.8343 18.6424 18.5738 18.7193 18.3868C18.9295 17.865 19.4081 17.3247 20.2117 17.3247C21.2646 17.3247 21.6855 18.1261 21.6855 19.3005V23.976H24.594Z" fill="white"/>
</svg>
