<svg width="34" height="35" viewBox="0 0 34 35" fill="none" xmlns="http://www.w3.org/2000/svg">
<rect y="0.5" width="34" height="34" rx="17" fill="url(#paint0_linear)"/>
<path d="M7.5424 17.4252C9.28154 16.4888 11.2229 15.7073 13.0368 14.9218C16.1574 13.6353 19.2905 12.371 22.4551 11.1939C23.0709 10.9934 24.1772 10.7972 24.2856 11.6891C24.2263 12.9516 23.9819 14.2067 23.8143 15.4618C23.3889 18.2218 22.8972 20.9724 22.4177 23.7233C22.2525 24.6397 21.0781 25.114 20.3267 24.5276C18.5208 23.3353 16.7011 22.1546 14.9183 20.9347C14.3343 20.3547 14.8758 19.5217 15.3974 19.1075C16.8848 17.6748 18.4621 16.4575 19.8717 14.9507C20.252 14.0532 19.1285 14.8096 18.7579 15.0414C16.7217 16.4129 14.7354 17.8682 12.5886 19.0736C11.492 19.6636 10.2139 19.1594 9.11783 18.8301C8.13505 18.4324 6.69492 18.0317 7.5423 17.4253L7.5424 17.4252Z" fill="white"/>
<defs>
<linearGradient id="paint0_linear" x1="12.752" y1="1.9178" x2="4.25198" y2="21.75" gradientUnits="userSpaceOnUse">
<stop stop-color="#37AEE2"/>
<stop offset="1" stop-color="#1E96C8"/>
</linearGradient>
</defs>
</svg>
